<?xml version="1.0"?>
<svg xmlns="http://www.w3.org/2000/svg" xmlns:xlink="http://www.w3.org/1999/xlink" version="1.1" id="Capa_1" x="0px" y="0px" viewBox="0 0 491.52 491.52" style="enable-background:new 0 0 491.52 491.52;" xml:space="preserve" width="512px" height="512px" class=""><g><circle style="fill:#334D5C" cx="245.76" cy="245.76" r="245.76" data-original="#334D5C" class=""/><path style="opacity: 0.1;fill:#334D5C" d="M140.442,104.981v281.6l104.962,104.93  c0.119,0.001,0.237,0.009,0.356,0.009c120.308,0,220.357-86.472,241.554-200.639l-185.9-185.9H140.442z" data-original="#000000" class="active-path" data-old_color="opacity: 0.1#334D5C"/><rect x="140.462" y="376.678" style="fill:#D5D6DB;" width="210.586" height="9.882" data-original="#D5D6DB"/><polygon style="fill:#EBF0F3;" points="301.407,104.96 140.462,104.96 140.462,376.679 351.058,376.679 351.058,154.785 " data-original="#EBF0F3" class=""/><polygon style="fill:#E1E6E9;" points="301.407,154.785 351.058,154.785 301.407,104.96 " data-original="#E1E6E9"/><g>
	<rect x="157.67" y="288.512" style="fill:#D5D6DB;" width="176.184" height="9.554" data-original="#D5D6DB"/>
	<rect x="157.67" y="316.303" style="fill:#D5D6DB;" width="176.184" height="9.554" data-original="#D5D6DB"/>
	<rect x="157.67" y="260.695" style="fill:#D5D6DB;" width="143.718" height="9.554" data-original="#D5D6DB"/>
	<rect x="157.67" y="232.909" style="fill:#D5D6DB;" width="176.184" height="9.554" data-original="#D5D6DB"/>
	<rect x="157.67" y="205.107" style="fill:#D5D6DB;" width="176.184" height="9.554" data-original="#D5D6DB"/>
	<rect x="157.67" y="344.115" style="fill:#D5D6DB;" width="80.205" height="9.554" data-original="#D5D6DB"/>
	<polygon style="fill:#D5D6DB;" points="301.407,154.785 351.058,196.408 351.058,154.785  " data-original="#D5D6DB"/>
</g><rect x="157.67" y="116.731" style="fill:#27A2DB;" width="57.718" height="67.999" data-original="#27A2DB" class=""/><g>
	<circle style="fill:#2D93BA" cx="186.527" cy="139.008" r="12.257" data-original="#2D93BA" class=""/>
	<path style="fill:#2D93BA" d="M186.528,155.87c-15.939,0-28.86,12.92-28.86,28.859h57.718   C215.387,168.791,202.466,155.87,186.528,155.87z" data-original="#2D93BA" class=""/>
</g></g> </svg>
